<svg xmlns="http://www.w3.org/2000/svg" viewBox="0 0 113.39 113.39"><defs><style>.cls-1{fill:#27496a;}.cls-2{fill:#fff;}</style></defs><title>SM_icons_twitter_TI</title><g id="Laag_1" data-name="Laag 1"><rect class="cls-1" width="113.39" height="113.39"/></g><g id="Laag_4" data-name="Laag 4"><path class="cls-2" d="M92.11,36.42a29.23,29.23,0,0,1-8.44,2.31,14.72,14.72,0,0,0,6.46-8.12,29.5,29.5,0,0,1-9.33,3.56,14.71,14.71,0,0,0-25,13.4A41.7,41.7,0,0,1,25.48,32.22,14.71,14.71,0,0,0,30,51.84,14.7,14.7,0,0,1,23.37,50v.18A14.71,14.71,0,0,0,35.16,64.59a14.57,14.57,0,0,1-3.87.52,14.87,14.87,0,0,1-2.77-.27A14.72,14.72,0,0,0,42.25,75.05,29.49,29.49,0,0,1,24,81.33a28.75,28.75,0,0,1-3.5-.2A41.55,41.55,0,0,0,43,87.73c27,0,41.8-22.39,41.8-41.8,0-.64,0-1.27,0-1.9A29.8,29.8,0,0,0,92.11,36.42Z"/></g></svg>